<?xml version="1.0" standalone="no"?>
<!DOCTYPE svg PUBLIC "-//W3C//DTD SVG 20010904//EN"
 "http://www.w3.org/TR/2001/REC-SVG-20010904/DTD/svg10.dtd">
<svg version="1.0" xmlns="http://www.w3.org/2000/svg"
 width="512.000000pt" height="512.000000pt" viewBox="0 0 512.000000 512.000000"
 preserveAspectRatio="xMidYMid meet">
<metadata>
Created by potrace 1.14, written by Peter Selinger 2001-2017
</metadata>
<g transform="translate(0.000000,512.000000) scale(0.100000,-0.100000)"
fill="#000000" stroke="none">
<path d="M2490 5093 c-199 -117 -424 -340 -563 -556 -76 -119 -73 -114 -121
-212 -72 -148 -142 -347 -162 -460 -3 -16 -9 -48 -14 -70 -5 -22 -12 -67 -15
-100 -4 -33 -8 -76 -11 -95 -11 -100 -4 -311 18 -460 13 -94 14 -102 23 -175
4 -33 11 -82 15 -108 6 -44 5 -52 -19 -80 -28 -34 -317 -373 -360 -422 -172
-199 -186 -218 -206 -289 -43 -149 28 -306 170 -376 49 -24 57 -25 313 -28
237 -3 262 -5 263 -20 0 -9 2 -26 4 -37 2 -11 7 -42 10 -69 4 -27 8 -56 10
-65 1 -9 6 -43 10 -76 13 -107 43 -135 146 -135 l60 0 -3 -217 -3 -218 -30
-54 c-33 -59 -87 -110 -149 -140 l-41 -19 -14 31 c-49 111 -68 143 -113 192
-78 86 -184 142 -298 159 -31 4 -69 37 -70 60 0 9 -70 96 -110 137 -77 79
-206 152 -325 185 -81 22 -243 27 -326 9 -240 -51 -459 -250 -547 -497 -21
-61 -26 -91 -26 -178 0 -118 5 -149 36 -235 73 -200 241 -362 456 -439 l87
-31 770 -3 c713 -3 772 -2 802 14 20 10 38 30 45 51 l12 33 121 0 120 0 16
-39 c14 -32 24 -42 57 -52 56 -16 96 0 119 52 l18 38 120 1 121 0 12 -33 c7
-21 25 -41 45 -51 30 -16 90 -17 802 -14 711 3 774 5 824 22 233 78 402 230
484 436 34 85 47 174 43 274 -14 286 -257 569 -554 646 -101 26 -270 21 -367
-10 -178 -57 -322 -166 -412 -312 -20 -32 -39 -59 -42 -59 -3 -1 -19 -3 -36
-5 -97 -11 -198 -64 -280 -148 -56 -57 -125 -172 -125 -209 0 -7 -3 -17 -6
-20 -13 -13 -126 57 -159 97 -69 86 -70 90 -73 328 l-4 218 61 0 c101 0 133
28 146 129 4 30 8 61 10 70 1 9 6 43 9 76 8 64 16 118 19 121 1 1 119 4 262 6
247 4 263 5 309 27 141 67 214 228 171 376 -22 78 -17 71 -244 334 -25 30 -59
70 -76 89 -16 20 -62 72 -101 117 -177 204 -172 197 -164 251 4 27 10 73 14
102 3 28 8 68 11 87 3 19 7 51 10 70 5 39 13 108 20 175 6 57 6 250 0 310 -6
70 -15 142 -20 164 -3 12 -7 32 -9 46 -8 49 -37 166 -56 225 -134 422 -392
779 -736 1017 -110 77 -135 82 -204 41z"/>
</g>
</svg>
