<?xml version="1.0" standalone="no"?>
<!DOCTYPE svg PUBLIC "-//W3C//DTD SVG 20010904//EN"
 "http://www.w3.org/TR/2001/REC-SVG-20010904/DTD/svg10.dtd">
<svg version="1.0" xmlns="http://www.w3.org/2000/svg"
 width="512.000000pt" height="512.000000pt" viewBox="0 0 512.000000 512.000000"
 preserveAspectRatio="xMidYMid meet">
<metadata>
Created by potrace 1.14, written by Peter Selinger 2001-2017
</metadata>
<g transform="translate(0.000000,512.000000) scale(0.100000,-0.100000)"
fill="#000000" stroke="none">
<path d="M2280 5109 c-854 -96 -1614 -622 -2001 -1385 -200 -395 -282 -754
-274 -1204 2 -124 7 -243 10 -265 26 -166 40 -236 70 -352 36 -138 88 -283
149 -417 36 -79 37 -80 20 -120 -29 -73 -76 -224 -90 -291 -35 -158 -45 -238
-44 -343 0 -75 3 -106 15 -180 16 -95 70 -198 145 -273 156 -158 409 -199 755
-123 101 22 272 72 320 94 49 22 63 19 157 -24 174 -82 444 -163 634 -191 22
-4 50 -8 64 -11 104 -19 470 -26 605 -11 480 52 897 212 1259 485 342 257 590
551 774 917 82 164 176 415 197 526 3 13 7 35 10 49 3 14 7 35 10 48 2 13 6
31 9 40 9 27 19 101 33 227 10 91 10 409 1 505 -9 85 -22 172 -37 245 -6 28
-13 61 -15 75 -27 134 -107 367 -182 523 -24 52 -24 55 -9 98 101 283 135 442
135 634 1 102 -6 153 -33 240 -29 96 -61 150 -127 216 -166 167 -442 204 -815
109 -61 -15 -156 -44 -211 -64 l-101 -36 -112 50 c-220 99 -477 170 -734 204
-114 15 -470 18 -587 5z"/>
</g>
</svg>
